<?xml version="1.0" encoding="UTF-8" standalone="no"?><svg xmlns:svg="http://www.w3.org/2000/svg" xmlns="http://www.w3.org/2000/svg" version="1.1" style="overflow:visible" viewBox="-250 -250 500 500" height="500px" width="500px"><rect fill-opacity="0" fill="rgb(0,0,0)" height="500" width="500" y="-250" x="-250" /><svg version="1.1" y="-250" x="-250" viewBox="-250 -250 500 500" height="500px" width="500px" style="overflow:visible"><g transform="rotate(0,0,0)" stroke-linejoin="round" fill="#fff"><path stroke-linecap="butt" stroke-linejoin="round" stroke-width="6" stroke-opacity="1" stroke="rgb(68,68,68)" fill="rgb(255,255,255)" d="m0.00001-147.00245c-8.79202 79.83581-23.46392 90.9391-23.46392 105.42579c0 11.57657 6.71195 21.39399 16.01988 24.87409v112.09575a26.883064 26.327924 0 0 0-19.43993 25.27804a26.883064 26.327924 0 0 0 26.88397 26.3288a26.883064 26.327924 0 0 0 26.88395-26.3288a26.883064 26.327924 0 0 0-19.43992-25.28766v-112.08613c9.30794-3.4801 16.01989-13.29752 16.01989-24.87409c0-14.48669-14.67191-25.58998-23.46392-105.42579zm0 257.880319a9.999268 9.792781 0 0 1 9.99985 9.79335a9.999268 9.792781 0 0 1-9.99985 9.79335a9.999268 9.792781 0 0 1-9.99984-9.79335a9.999268 9.792781 0 0 1 9.99984-9.79335z" /></g></svg></svg>